<?xml version="1.0" standalone="no"?>
<!DOCTYPE svg PUBLIC "-//W3C//DTD SVG 20010904//EN"
 "http://www.w3.org/TR/2001/REC-SVG-20010904/DTD/svg10.dtd">
<svg version="1.0" xmlns="http://www.w3.org/2000/svg"
 viewBox="0 0 2600.000000 2600.000000"
 preserveAspectRatio="xMidYMid meet">
<metadata>
Created by potrace 1.15, written by Peter Selinger 2001-2017
</metadata>
<g transform="translate(0.000000,2600.000000) scale(0.100000,-0.100000)"
fill="#000000" stroke="none">
<path d="M10881 24687 c-630 -1820 -1091 -3359 -1504 -5022 -837 -3367 -1280
-6604 -1432 -10455 -8 -217 -18 -433 -22 -480 l-6 -85 -24 140 c-121 720 -272
1606 -368 2160 -64 369 -179 1035 -256 1480 -488 2823 -752 4519 -935 5990
-19 159 -37 291 -38 293 -7 7 -17 -359 -22 -878 -24 -2128 160 -5266 556
-9500 85 -904 154 -1606 335 -3415 244 -2435 308 -3117 335 -3585 6 -102 13
-204 16 -228 l5 -42 587 2 587 3 12 220 c62 1126 344 3119 744 5245 82 439
283 1448 299 1510 8 29 19 39 63 59 91 41 359 147 445 175 l82 28 60 -40 c109
-73 233 -98 409 -81 103 10 104 9 177 -21 40 -16 103 -37 141 -46 71 -17 220
-22 263 -10 18 5 21 5 10 -3 -32 -22 163 -259 298 -361 90 -68 229 -136 332
-161 122 -31 279 -23 403 19 79 27 201 92 267 142 l25 19 -30 58 c-16 31 -49
84 -73 116 -39 53 -42 59 -21 53 13 -4 57 -16 98 -26 279 -74 605 -37 849 97
55 30 61 36 52 54 -8 13 11 5 61 -27 94 -61 216 -117 314 -146 107 -30 327
-33 420 -4 111 34 215 92 312 173 l52 44 73 -62 c343 -288 659 -354 918 -191
30 19 72 50 92 70 l37 36 138 -59 c122 -52 255 -117 458 -223 33 -17 90 -45
127 -62 67 -31 281 -157 432 -254 l83 -54 23 -73 c30 -102 71 -185 125 -255
122 -158 280 -234 488 -234 l98 0 127 -119 c275 -256 543 -560 770 -873 l92
-128 0 -105 c0 -239 62 -396 218 -550 l70 -70 -8 -45 c-33 -165 8 -398 104
-605 74 -158 274 -452 300 -442 8 3 10 -30 8 -127 -9 -289 62 -542 198 -705
41 -50 50 -67 50 -99 0 -64 28 -205 61 -310 32 -102 153 -362 168 -362 23 0
129 131 156 193 l28 67 22 -65 c29 -87 96 -182 204 -289 l89 -89 -46 -66 c-98
-143 -136 -265 -130 -416 7 -149 54 -249 170 -365 54 -54 191 -150 213 -150
15 0 95 101 123 155 48 96 67 183 66 315 -1 187 -54 373 -155 543 l-41 69 22
67 c58 182 37 409 -57 596 -25 50 -29 65 -16 52 11 -9 24 -17 30 -17 12 0 65
120 93 209 l17 53 7 -110 c7 -129 33 -236 75 -320 32 -64 136 -199 176 -229
l24 -18 -20 -80 c-68 -277 -96 -581 -66 -721 30 -141 91 -223 201 -275 67 -31
177 -59 237 -59 l36 0 27 82 c44 137 59 246 53 393 -7 192 -55 343 -158 501
l-39 61 21 124 c29 172 24 362 -14 463 -52 141 -166 262 -385 410 l-131 89 -6
46 c-16 122 -46 232 -89 331 -5 13 11 15 111 15 65 0 149 6 187 14 l69 14 -6
126 c-9 210 -55 329 -172 446 -72 72 -164 129 -268 164 l-52 18 113 -5 112 -5
0 59 c0 82 -24 175 -67 264 -28 57 -57 95 -122 160 -92 92 -170 139 -270 162
-31 7 -56 19 -62 30 -6 11 -6 18 0 18 5 0 27 35 49 78 124 239 128 448 15 641
-52 89 -199 239 -367 377 l-141 115 -22 91 c-39 157 -104 272 -230 408 -58 62
-133 176 -121 184 2 1 29 10 61 20 69 21 69 21 28 167 -65 228 -138 379 -239
491 -39 43 -38 44 13 22 39 -16 54 -9 55 23 0 7 5 35 11 63 l11 52 41 -64 c91
-141 240 -258 373 -292 l49 -12 -3 -135 c-7 -302 74 -508 246 -623 77 -51 67
-34 127 -226 15 -47 33 -125 41 -175 45 -279 164 -449 362 -516 58 -19 62 -23
67 -57 21 -123 107 -317 224 -500 l53 -83 -37 -81 c-60 -132 -78 -221 -72
-357 3 -89 10 -133 30 -189 34 -98 103 -205 192 -300 71 -75 181 -169 189
-161 10 11 58 180 77 271 27 131 29 287 5 378 -22 86 -69 182 -153 314 l-70
109 28 62 c57 127 72 205 74 390 3 160 4 173 29 225 43 91 60 188 53 309 -3
58 -8 117 -12 131 -3 14 8 -11 23 -55 45 -123 84 -202 146 -295 l57 -84 -25
-106 c-39 -165 -47 -223 -47 -340 1 -133 24 -241 74 -336 14 -26 13 -34 -8
-90 -87 -230 -92 -438 -16 -601 17 -36 31 -69 31 -74 0 -5 -18 -51 -40 -102
-22 -51 -52 -138 -67 -193 -24 -86 -27 -118 -28 -239 0 -160 17 -233 84 -362
l38 -72 -28 20 -28 20 -6 -23 c-84 -364 -86 -607 -7 -778 39 -85 155 -194 267
-251 50 -25 96 -48 104 -50 11 -4 11 -20 -3 -99 -29 -171 -17 -328 37 -471 63
-167 197 -299 346 -343 30 -9 58 -16 63 -16 13 0 47 77 63 142 42 178 -7 428
-116 599 -23 35 -69 92 -102 127 l-62 63 -1 152 c0 84 -4 172 -9 197 l-8 45
88 -88 c48 -48 91 -87 95 -87 18 0 103 222 125 325 23 114 21 145 -21 293 -7
23 -6 23 43 -7 28 -17 52 -31 55 -31 14 0 33 169 32 275 -3 235 -72 398 -244
579 -58 61 -164 152 -249 213 -2 1 6 25 18 53 33 77 43 144 30 214 -11 63 -54
167 -88 215 -27 38 -27 41 12 103 77 123 102 219 95 379 -4 98 -10 130 -42
226 -21 61 -63 156 -93 210 -50 90 -54 100 -43 128 77 205 98 319 81 449 -36
266 -182 489 -510 775 -78 68 -141 131 -141 140 0 9 4 32 9 51 5 19 12 48 15
63 l7 28 26 -33 c110 -137 392 -372 423 -353 16 10 57 96 75 158 l16 57 63
-128 c154 -309 349 -530 561 -632 114 -55 116 -55 131 5 77 292 -57 677 -331
950 -108 109 -248 204 -355 242 l-78 27 -12 56 c-31 138 -125 360 -215 510
-29 48 -36 73 -55 203 -31 222 -67 387 -116 536 -87 265 -196 407 -376 491
-41 19 -70 39 -73 51 -4 11 -5 22 -3 25 3 2 36 -10 74 -26 38 -16 75 -30 82
-30 27 0 4 239 -39 410 -72 284 -246 510 -513 669 -76 45 -81 50 -132 141 -30
52 -54 99 -54 103 0 4 9 3 20 -3 30 -16 238 -69 244 -62 12 12 5 291 -9 382
-57 353 -228 617 -496 764 -109 60 -270 106 -370 106 -21 0 -39 1 -39 3 0 3
-105 295 -115 320 -7 17 -2 16 42 -6 118 -60 291 -75 432 -37 110 30 106 25
75 111 -128 358 -415 626 -818 762 l-98 34 -94 181 c-52 100 -91 182 -88 182
8 0 257 -177 394 -280 63 -48 128 -105 144 -128 75 -108 265 -266 406 -337 59
-29 63 -33 296 -247 l151 -139 12 -67 c43 -238 167 -471 314 -594 61 -51 193
-120 253 -132 l31 -7 1 -85 c2 -109 23 -196 77 -309 92 -197 251 -345 450
-421 l72 -28 7 -105 c22 -365 201 -641 522 -808 134 -70 337 -128 512 -147
l52 -5 0 42 c-1 197 -181 514 -443 781 -62 62 -137 134 -167 159 l-55 47 68 0
c37 0 67 2 67 4 0 21 -101 309 -130 373 -101 218 -269 384 -484 477 -43 19
-74 36 -69 39 4 3 29 8 56 12 29 5 47 12 47 21 0 18 -79 228 -129 344 -103
237 -240 409 -388 488 -122 64 -307 90 -454 62 l-53 -10 -59 58 -59 59 107 7
c158 10 165 12 165 51 0 49 -37 162 -76 232 -174 314 -619 607 -994 655 -23 3
-22 5 15 25 22 12 53 32 69 45 l28 24 -32 64 c-53 106 -118 200 -189 273 -149
155 -303 221 -503 216 l-100 -3 -39 52 c-79 104 -228 201 -364 237 -33 8 -97
18 -143 22 -80 6 -83 7 -117 45 -19 21 -35 42 -35 47 0 19 32 19 77 0 235
-101 462 -86 620 39 l52 42 -14 40 c-26 74 -108 222 -165 299 -67 91 -186 203
-263 249 -30 18 -88 45 -129 60 -63 23 -89 26 -188 26 -97 0 -126 -4 -186 -25
l-72 -25 -38 33 c-48 41 -143 89 -214 109 -72 19 -239 28 -318 16 -34 -5 -59
-6 -55 -3 4 4 33 23 63 44 30 20 79 59 109 85 l54 48 -59 24 c-58 23 -176 80
-202 98 -10 7 -2 21 35 60 58 60 120 160 107 171 -11 11 -353 85 -484 106
-109 17 -278 20 -332 5 -67 -19 -130 -71 -206 -171 l-72 -96 -90 21 c-50 12
-90 24 -90 27 0 4 13 12 29 18 41 18 137 101 204 179 59 67 201 262 195 267
-10 10 -180 57 -254 71 -116 22 -236 15 -335 -20 -40 -14 -74 -24 -75 -23 -2
1 12 43 31 92 18 50 40 122 48 160 l14 70 -31 7 c-17 4 -114 10 -216 14 -206
7 -290 -4 -386 -51 -47 -23 -147 -116 -171 -158 -9 -18 -16 -18 -109 -7 -176
21 -345 -7 -471 -80 -111 -64 -230 -201 -333 -385 -19 -33 -71 -140 -115 -238
l-81 -179 -120 -56 c-230 -109 -440 -231 -671 -389 l-122 -84 13 38 c7 21 16
51 20 66 l7 29 -71 -4 c-38 -1 -70 -2 -70 0 0 2 7 16 15 32 8 16 28 69 45 117
24 73 30 82 30 52 l0 -35 73 8 c275 32 483 147 614 338 107 157 191 429 236
758 16 119 22 113 -88 83 -329 -92 -590 -319 -726 -631 -16 -36 -28 -60 -29
-55 0 6 11 109 25 229 14 121 23 221 21 224 -9 8 -112 -31 -201 -76 -73 -37
-108 -64 -180 -137 -105 -105 -149 -183 -192 -341 -26 -96 -27 -108 -28 -365
l0 -266 -70 -36 c-202 -104 -302 -316 -356 -752 -10 -88 -15 -104 -43 -136
-17 -20 -83 -97 -147 -170 -64 -74 -152 -180 -197 -237 -45 -57 -82 -100 -82
-96 0 3 16 70 35 148 63 259 135 756 109 756 -6 0 -43 -9 -80 -21 -280 -86
-463 -277 -611 -639 -9 -21 -12 -9 -18 70 -4 52 -9 99 -12 103 -6 10 -68 -44
-115 -100 -21 -25 -38 -43 -38 -40 0 4 56 190 124 414 1010 3311 2121 5930
3304 7788 108 169 314 474 438 648 31 42 53 77 50 77 -3 0 -60 -45 -127 -101
-647 -539 -1374 -1505 -2094 -2784 -1017 -1805 -2055 -4262 -2978 -7050 -278
-841 -488 -1522 -773 -2510 l-124 -430 5 110 c42 853 169 2536 275 3655 292
3071 787 6484 1541 10624 44 241 78 443 77 447 -2 5 -36 -87 -77 -204z m4272
-8748 c-17 -50 -21 -54 -51 -57 l-34 -3 49 64 c26 36 49 61 51 57 1 -4 -5 -31
-15 -61z m710 -8 c-9 -1 -45 0 -80 4 l-65 7 33 22 32 22 48 -25 c31 -17 43
-27 32 -30z m137 -221 c357 -37 685 -133 1008 -292 67 -34 122 -64 122 -67 0
-3 -38 -25 -85 -48 l-85 -42 26 40 25 40 -93 44 c-51 24 -140 60 -198 79 -333
110 -512 59 -925 -266 l-80 -63 53 63 c28 35 70 89 91 121 45 65 181 301 181
312 0 8 -103 48 -185 73 l-50 15 50 0 c28 0 93 -4 145 -9z m-736 -46 c-147
-88 -275 -268 -340 -477 -20 -64 -10 -59 -149 -77 -249 -31 -540 -111 -860
-237 -173 -68 -538 -247 -705 -347 -69 -40 -126 -73 -128 -71 -2 1 11 27 29
56 18 30 48 88 68 130 32 68 46 85 117 142 333 269 783 539 1129 677 233 93
544 183 747 215 56 9 110 18 118 19 34 8 31 4 -26 -30z m1647 -580 c18 -19 53
-48 77 -64 l43 -28 -47 -18 c-40 -15 -51 -16 -78 -5 -17 7 -50 20 -72 29 l-42
16 37 53 c20 29 38 52 42 53 3 0 21 -16 40 -36z m-1207 10 c10 -27 7 -34 -17
-34 -33 0 -40 10 -20 32 20 22 29 23 37 2z m-165 -223 l255 -43 61 -64 c85
-87 150 -117 270 -122 82 -4 156 7 215 32 12 5 20 -5 33 -42 60 -165 231 -328
396 -376 79 -23 206 -21 285 5 l65 21 43 -33 c69 -55 263 -228 392 -351 l120
-114 -22 -84 c-113 -455 17 -813 364 -997 76 -39 231 -97 284 -104 23 -4 26 0
37 56 7 33 18 122 24 198 11 129 13 136 29 122 14 -13 17 -28 13 -78 -6 -70 9
-213 32 -302 54 -212 220 -395 437 -480 40 -16 74 -30 76 -30 1 -1 -9 -49 -23
-106 -45 -187 -44 -368 5 -507 11 -30 19 -57 17 -58 -1 -1 -29 5 -62 14 -43
11 -93 39 -177 98 l-118 82 38 6 c71 13 212 59 212 71 0 6 -11 50 -25 97 -85
292 -234 494 -441 597 -159 79 -366 90 -557 31 l-60 -19 -55 50 c-111 102
-277 194 -453 253 l-99 34 -168 163 c-167 164 -337 312 -487 426 -176 133
-486 323 -659 404 l-67 31 47 29 c29 19 50 27 57 21 7 -5 38 -30 69 -55 170
-136 409 -187 587 -124 41 15 99 43 129 63 66 46 159 146 192 209 l25 46 -25
19 c-54 41 -230 146 -310 186 -142 70 -202 87 -311 88 -90 1 -99 -1 -170 -36
-40 -21 -94 -54 -118 -75 l-43 -38 -107 52 c-142 70 -247 97 -360 91 -138 -7
-230 -60 -306 -178 -37 -57 -42 -61 -70 -57 -216 38 -271 47 -294 47 -47 0
-43 11 22 60 237 179 359 408 321 600 -8 39 -41 61 -144 94 -95 31 -129 36
-227 37 -297 2 -578 -224 -855 -687 l-72 -121 -88 -12 c-112 -15 -311 -66
-498 -129 -80 -26 -153 -52 -162 -56 -14 -6 -11 5 14 60 17 38 46 114 64 169
l33 100 -22 7 c-12 3 -38 7 -57 7 l-35 1 25 20 c95 73 486 291 699 390 405
187 701 276 1106 334 17 2 113 3 215 2 164 -3 213 -8 439 -45z m2094 -316
c109 -25 277 -35 399 -24 l112 10 32 -37 31 -38 -53 -27 c-30 -15 -67 -37 -83
-48 -16 -12 -33 -21 -38 -21 -5 0 -72 27 -149 61 -76 34 -182 79 -234 100
-106 43 -108 45 -17 24z m300 -379 c57 -26 111 -60 140 -87 82 -79 217 -146
341 -170 76 -14 311 -153 346 -205 105 -152 383 -679 510 -969 65 -147 190
-451 190 -463 0 -3 -26 29 -57 73 -409 571 -972 1249 -1392 1677 -101 104
-181 188 -177 188 3 0 48 -20 99 -44z m-3489 -403 c54 -135 129 -246 246 -363
107 -107 173 -153 278 -196 116 -47 176 -57 312 -51 142 5 250 32 375 93 l73
36 -10 31 c-29 91 -62 169 -89 212 -16 26 -28 49 -25 52 7 7 326 -155 436
-222 296 -180 584 -409 831 -662 l96 -98 22 -113 c40 -211 106 -338 241 -466
150 -140 367 -221 651 -242 l96 -7 349 -244 c192 -135 357 -250 366 -257 12
-9 20 -38 28 -107 48 -409 231 -680 533 -791 87 -32 206 -58 263 -58 39 0 41
-7 15 -58 -26 -52 -78 -200 -97 -280 -9 -37 -18 -121 -21 -187 -10 -252 69
-469 264 -727 64 -85 67 -87 81 -67 38 55 202 394 228 472 l29 87 63 -63 63
-63 -34 -75 c-38 -83 -67 -163 -93 -259 -25 -90 -25 -290 0 -380 43 -156 142
-327 272 -469 l68 -73 18 22 c10 12 18 20 18 18 0 -2 -11 -46 -24 -99 -60
-236 -38 -392 79 -569 48 -72 163 -195 252 -268 l51 -42 33 56 c47 83 53 52
18 -101 -51 -229 -72 -373 -73 -506 l-1 -126 -39 46 c-22 25 -67 73 -101 106
l-61 60 15 40 c10 27 15 80 15 165 0 113 -3 132 -28 200 -54 143 -171 283
-309 370 -31 19 -60 46 -65 60 -6 14 -13 32 -17 41 -5 12 2 19 26 28 31 11 31
12 24 58 -11 76 -59 216 -98 285 -46 82 -123 167 -202 223 -79 57 -91 83 -74
162 18 83 16 264 -5 343 -28 110 -72 188 -150 265 -82 81 -160 124 -287 156
-100 26 -116 40 -185 171 -34 63 -73 116 -134 181 -47 51 -115 128 -150 172
-36 44 -116 138 -178 209 l-113 128 50 23 50 23 -15 49 c-7 26 -35 90 -60 141
-54 107 -149 217 -241 278 -83 55 -205 94 -316 101 -87 6 -95 8 -135 42 -36
29 -41 37 -29 45 8 6 36 26 62 44 l48 34 -49 50 c-58 59 -148 125 -224 163
l-54 28 54 27 c30 15 76 47 102 69 l47 42 -32 52 c-76 124 -220 246 -356 301
-143 58 -361 78 -516 48 -105 -21 -205 -54 -205 -68 0 -8 -3 -14 -6 -14 -11 0
-104 53 -104 59 1 3 24 17 53 30 61 28 227 187 227 217 0 34 -73 145 -132 199
-162 151 -411 177 -715 76 -46 -15 -83 -27 -83 -26 0 1 22 16 49 33 85 55 215
210 246 293 14 38 -225 130 -375 144 -153 14 -341 -39 -477 -134 -93 -66 -259
-243 -288 -308 -1 -2 -62 6 -136 17 -632 90 -1279 16 -1808 -207 -58 -24 -153
-62 -211 -82 -993 -359 -2013 -1221 -2919 -2470 -62 -85 -110 -144 -107 -130
4 13 31 134 62 269 83 371 226 974 324 1369 l88 353 118 177 c665 986 1406
1686 2217 2093 l139 69 72 -69 c138 -131 259 -185 416 -185 111 -1 204 22 332
81 138 64 398 233 398 260 0 22 -92 113 -154 153 -55 35 -58 38 -35 44 39 10
247 23 342 21 l88 -1 33 -82z m-2324 -412 l0 -48 -137 -103 c-76 -57 -126 -90
-114 -74 29 38 243 274 247 274 2 0 4 -22 4 -49z m-1131 -746 c7 -55 19 -146
27 -202 l15 -102 -99 -118 c-54 -65 -145 -179 -202 -253 -56 -74 -100 -126
-97 -115 3 11 45 166 92 345 48 179 120 446 161 593 41 148 75 271 76 275 0 4
4 -67 8 -158 4 -91 13 -210 19 -265z m457 348 c-8 -16 -21 -37 -29 -47 -13
-18 -14 -16 -9 15 4 32 25 59 44 59 5 0 2 -12 -6 -27z m4454 -957 c0 -3 -26
-18 -57 -35 l-57 -31 -51 17 -50 17 70 8 c39 4 84 12 100 17 36 11 45 12 45 7z
m-407 -202 c439 -110 867 -291 1317 -557 131 -77 360 -228 360 -238 0 -4 -8
-10 -17 -13 -10 -4 -29 -15 -43 -25 l-24 -19 47 -61 48 -60 -74 33 c-81 37
-246 96 -269 96 -7 0 -56 34 -108 76 -382 311 -810 571 -1190 722 -69 27 -143
56 -165 65 -60 24 -38 20 118 -19z m-913 -9 c586 -73 1151 -301 1708 -689 165
-116 212 -155 194 -163 -32 -13 -81 -67 -108 -117 l-28 -54 -110 -5 c-61 -3
-138 -12 -171 -21 -153 -41 -326 -156 -435 -290 l-60 -73 -108 -28 c-59 -15
-210 -62 -337 -104 -126 -41 -236 -77 -244 -79 -10 -3 -12 3 -7 21 5 23 1 26
-52 46 -126 46 -207 63 -328 68 -106 5 -131 3 -192 -16 -179 -54 -316 -213
-408 -475 -27 -78 -28 -79 -83 -103 -31 -14 -450 -220 -931 -458 l-875 -434
-110 30 c-163 43 -307 56 -418 36 -106 -19 -213 -67 -280 -127 -47 -42 -49
-43 -235 -80 -398 -81 -798 -199 -1075 -316 -65 -28 -77 -31 -73 -16 2 9 17
76 31 147 31 149 37 160 262 488 584 849 1219 1536 1863 2014 480 357 956 595
1436 718 200 52 349 75 624 99 90 8 428 -4 550 -19z m5322 -920 c150 -243 358
-603 358 -619 0 -19 -114 79 -260 224 -94 93 -215 208 -270 256 -55 48 -98 89
-96 91 2 3 31 -9 64 -26 75 -38 73 -40 80 132 2 71 8 125 12 120 4 -4 54 -84
112 -178z m-2522 -183 c79 -36 151 -52 232 -52 80 0 129 -36 153 -113 81 -251
319 -485 540 -530 58 -11 64 -16 138 -96 42 -46 76 -86 74 -88 -3 -2 -16 1
-29 6 -24 9 -26 8 -32 -36 -11 -79 -7 -217 9 -307 31 -175 101 -311 231 -446
46 -48 115 -109 153 -136 48 -33 68 -54 65 -64 -43 -117 -62 -287 -46 -395 6
-38 10 -70 9 -72 -2 -1 -40 62 -86 140 -362 614 -806 1244 -1179 1669 -13 16
-10 23 42 79 l57 61 -56 40 c-73 52 -245 141 -317 163 -40 13 -69 31 -97 59
l-39 41 41 68 c36 61 42 66 57 52 9 -8 45 -27 80 -43z m2428 -315 l33 -34 -19
-67 -18 -68 -29 43 c-22 35 -29 57 -32 112 -3 62 -2 67 14 58 10 -5 33 -25 51
-44z m-3926 -183 c193 -81 359 -84 526 -9 34 15 64 26 66 24 1 -2 17 -25 34
-50 46 -68 144 -164 213 -209 80 -52 170 -80 260 -83 l73 -2 22 -62 c31 -85
67 -144 120 -193 42 -38 133 -90 161 -90 7 0 0 -27 -18 -70 -99 -234 -98 -479
1 -712 74 -173 223 -334 384 -414 51 -25 107 -46 126 -47 29 -2 34 2 45 33
l12 35 40 -86 c22 -48 52 -104 67 -125 45 -67 134 -150 194 -182 l58 -31 11
-89 c20 -161 98 -349 185 -448 17 -19 28 -37 26 -40 -3 -2 -25 0 -49 5 -64 15
-225 13 -294 -4 -33 -8 -65 -14 -71 -15 -6 0 -32 32 -58 70 -167 244 -437 315
-786 207 l-75 -23 -90 55 c-49 30 -94 58 -98 62 -5 4 22 23 60 43 95 50 222
154 300 245 36 42 69 84 74 93 7 13 -7 33 -68 96 -178 182 -394 272 -652 272
-171 0 -349 -44 -511 -125 -69 -35 -90 -37 -90 -10 0 7 -20 53 -45 102 -95
190 -262 288 -455 268 -126 -14 -308 -79 -433 -156 l-50 -30 -135 35 c-74 20
-193 50 -264 66 -72 17 -142 39 -157 49 -36 26 -136 66 -196 79 -94 20 -143
23 -228 12 -74 -9 -112 -7 -279 14 -106 14 -230 28 -275 32 -45 4 -86 10 -93
14 -8 5 -3 19 15 46 48 71 104 191 149 324 25 71 42 130 38 131 -4 0 -38 8
-77 19 l-70 18 128 63 c82 40 131 59 135 52 11 -16 188 -80 274 -97 97 -20
246 -21 322 -1 152 40 287 152 365 303 34 66 46 82 59 77 274 -108 511 -106
720 6 130 69 219 161 286 296 55 110 56 106 -16 139 l-63 28 35 7 c19 3 39 7
43 8 4 0 35 -11 69 -25z m1789 -731 c25 -58 83 -227 93 -268 6 -25 1 -20 -29
25 -52 78 -126 167 -185 225 l-51 50 53 6 c103 11 97 13 119 -38z m327 -125
c241 -335 658 -996 782 -1238 l20 -40 -44 0 -45 0 -3 -60 -3 -59 -65 50 c-100
77 -100 77 -100 108 0 16 -13 81 -29 145 -67 266 -206 465 -398 572 l-61 35
-12 72 c-27 163 -82 376 -131 507 -25 66 -25 67 89 -92z m-5310 -456 l-23 -42
-65 1 -65 0 85 43 c47 24 86 43 88 42 1 -2 -8 -21 -20 -44z m12 -256 c0 -2
-34 -16 -75 -31 -127 -46 -268 -140 -400 -266 l-70 -67 -60 10 c-99 16 -300
-7 -410 -48 -11 -4 3 11 30 33 67 53 174 170 238 260 29 40 64 77 78 83 31 13
669 38 669 26z m730 -36 c58 -6 125 -13 150 -16 l45 -6 -30 -15 c-17 -9 -72
-43 -123 -76 l-92 -59 -48 44 c-63 58 -107 91 -167 123 l-50 27 105 -6 c58 -4
152 -11 210 -16z m-2482 -150 c-7 -11 -19 -22 -27 -25 -22 -9 -213 -27 -219
-21 -7 8 10 13 128 40 134 31 133 31 118 6z m9982 -131 c36 -6 98 -9 138 -8
l72 4 -7 -35 c-4 -19 -7 -112 -7 -206 l0 -171 -126 100 c-114 90 -127 104
-142 150 -10 28 -37 89 -60 136 -24 47 -44 89 -46 92 -1 3 23 -7 55 -22 32
-15 87 -33 123 -40z m-6075 31 c3 -5 1 -10 -4 -10 -6 0 -11 5 -11 10 0 6 2 10
4 10 3 0 8 -4 11 -10z m1262 -143 c12 -34 21 -63 19 -64 -3 -4 -97 35 -105 42
-2 2 9 24 25 49 16 25 31 43 33 40 3 -3 15 -33 28 -67z m2972 -164 c2 -2 -3
-3 -11 -3 -9 0 -24 12 -33 28 l-18 27 29 -25 c16 -14 31 -26 33 -27z m19 -857
l52 -20 0 -60 c0 -117 21 -298 45 -393 64 -253 208 -418 443 -509 42 -16 78
-37 85 -49 6 -11 14 -85 18 -165 11 -227 62 -342 216 -485 48 -45 58 -62 98
-167 25 -65 45 -131 45 -146 0 -48 46 -215 75 -273 15 -30 43 -75 61 -102 19
-26 43 -70 53 -97 l19 -50 -25 0 -25 0 5 -152 c5 -175 26 -269 82 -385 l35
-71 -30 -94 c-95 -293 -93 -534 6 -737 l36 -73 -66 -137 c-36 -75 -76 -165
-90 -201 -24 -62 -25 -63 -26 -29 -1 108 -63 321 -126 437 -19 35 -34 77 -34
96 0 113 -71 375 -144 527 -36 77 -119 211 -163 263 -28 34 -28 32 20 166 70
193 85 414 42 615 -41 196 -149 397 -284 530 l-71 69 -28 -27 -29 -28 -13 63
c-28 146 -104 286 -223 413 l-77 83 72 40 c95 52 208 155 208 189 0 35 -43
159 -76 217 -34 60 -142 176 -204 220 -25 17 -84 51 -132 76 l-88 46 50 49
c28 27 50 55 50 63 0 15 -58 108 -101 163 -16 20 -29 39 -29 42 0 4 30 -5 67
-19 53 -20 68 -22 75 -12 17 25 58 113 58 126 0 8 4 12 8 10 4 -1 31 -12 60
-22z m2062 -131 c41 -24 81 -48 89 -52 9 -6 16 -43 22 -108 8 -86 38 -287 54
-365 3 -14 -8 13 -25 59 -34 95 -114 267 -198 421 -71 131 -70 128 -41 107 13
-9 58 -37 99 -62z m177 -577 c-3 -8 -6 -5 -6 6 -1 11 2 17 5 13 3 -3 4 -12 1
-19z m521 -2260 c42 -22 42 -22 42 -79 0 -31 3 -72 6 -90 10 -50 -4 -30 -76
105 -49 95 -57 116 -39 103 13 -10 43 -27 67 -39z m187 -650 l28 -42 -26 -76
c-41 -119 -59 -189 -71 -280 l-12 -84 -23 33 -24 33 37 111 c39 120 56 211 56
295 0 28 2 52 4 52 2 0 16 -19 31 -42z"/>
</g>
</svg>
